<?xml version="1.0" ?><!DOCTYPE svg  PUBLIC '-//W3C//DTD SVG 1.1//EN'  'http://www.w3.org/Graphics/SVG/1.1/DTD/svg11.dtd'><svg height="263.000" viewBox="-216.000 -203.000 417.000 263.000" width="417.000" xmlns="http://www.w3.org/2000/svg"><line fill="none" stroke="none" stroke-linecap="round" stroke-width="2.0" x1="0.0" x2="0.0" y1="0.0" y2="0.0"/><polygon fill="none" fill-rule="evenodd" points="0.0,0.0 0.0,0.0 0.0,0.0" stroke-linejoin="round"/><text fill="#000" font-family="DejaVu Sans" font-size="15.0pt" stroke-width="0.0" x="-1.0" y="45">A</text><line fill="none" stroke="#000" stroke-linecap="round" stroke-width="1.5" x1="0.0" x2="0.0" y1="-0.0" y2="-175.0"/><text fill="#000" font-family="DejaVu Sans" font-size="15.0pt" stroke-width="0.0" x="-1.0" y="-130">B</text><text fill="#000" font-family="DejaVu Sans" font-size="15.0pt" stroke-width="0.0" x="-1.0" y="-130">B</text><line fill="none" stroke="#000" stroke-linecap="round" stroke-width="1.5" x1="0.0" x2="175.0" y1="-175.0" y2="-175.0"/><text fill="#000" font-family="DejaVu Sans" font-size="15.0pt" stroke-width="0.0" x="174.0" y="-130">C</text><text fill="#000" font-family="DejaVu Sans" font-size="15.0pt" stroke-width="0.0" x="174.0" y="-130">C</text><line fill="none" stroke="#000" stroke-linecap="round" stroke-width="1.5" x1="175.0" x2="175.0" y1="-175.0" y2="-0.0"/><text fill="#000" font-family="DejaVu Sans" font-size="15.0pt" stroke-width="0.0" x="174.0" y="45">D</text><text fill="#000" font-family="DejaVu Sans" font-size="15.0pt" stroke-width="0.0" x="-176.0" y="-130">E</text><line fill="none" stroke="#000" stroke-linecap="round" stroke-width="1.5" x1="-175.0" x2="0.0" y1="-175.0" y2="-175.0"/><text fill="#000" font-family="DejaVu Sans" font-size="15.0pt" stroke-width="0.0" x="-1.0" y="-130">B</text><polyline fill="none" points="0.0,-0.0 -25.0,-0.0 -28.5355339059,3.53553390593 -25.0,4.4408920985e-16 -15.0,4.4408920985e-16 -18.5355339059,3.53553390593 -15.0,8.881784197e-16 -5.0,8.881784197e-16 -8.53553390593,3.53553390593 -5.0,1.33226762955e-15 5.0,1.33226762955e-15 1.46446609407,3.53553390593 5.0,1.7763568394e-15 15.0,1.7763568394e-15 11.4644660941,3.53553390593 15.0,2.22044604925e-15 25.0,2.22044604925e-15 21.4644660941,3.53553390593" stroke="#000" stroke-linecap="round" stroke-linejoin="round" stroke-width="1.5"/><polyline fill="none" points="175.0,-0.0 185.0,17.3205080757 165.0,17.3205080757 175.0,-0.0 165.0,17.3205080757 175.0,17.3205080757 162.5,17.3205080757 158.964466094,20.8560419816 162.5,17.3205080757 167.5,17.3205080757 163.964466094,20.8560419816 167.5,17.3205080757 172.5,17.3205080757 168.964466094,20.8560419816 172.5,17.3205080757 177.5,17.3205080757 173.964466094,20.8560419816 177.5,17.3205080757 182.5,17.3205080757 178.964466094,20.8560419816 182.5,17.3205080757 187.5,17.3205080757 183.964466094,20.8560419816" stroke="#000" stroke-linecap="round" stroke-linejoin="round" stroke-width="1.5"/><polyline fill="none" points="-175.0,-175.0 -192.320508076,-165.0 -192.320508076,-185.0 -175.0,-175.0 -192.320508076,-185.0 -192.320508076,-180.0 -192.856406461,-182.0 -194.320508076,-183.464101615 -196.320508076,-184.0 -198.320508076,-183.464101615 -199.784609691,-182.0 -200.320508076,-180.0 -199.784609691,-178.0 -198.320508076,-176.535898385 -196.320508076,-176.0 -194.320508076,-176.535898385 -192.856406461,-178.0 -192.320508076,-180.0 -192.320508076,-175.0 -192.320508076,-170.0 -192.856406461,-172.0 -194.320508076,-173.464101615 -196.320508076,-174.0 -198.320508076,-173.464101615 -199.784609691,-172.0 -200.320508076,-170.0 -199.784609691,-168.0 -198.320508076,-166.535898385 -196.320508076,-166.0 -194.320508076,-166.535898385 -192.856406461,-168.0 -192.320508076,-170.0 -192.320508076,-165.0 -192.320508076,-175.0" stroke="#000" stroke-linecap="round" stroke-linejoin="round" stroke-width="1.5"/><polyline fill="none" points="-200.320508076,-175.0 -200.320508076,-187.5 -203.856041982,-191.035533906 -200.320508076,-187.5 -200.320508076,-182.5 -203.856041982,-186.035533906 -200.320508076,-182.5 -200.320508076,-177.5 -203.856041982,-181.035533906 -200.320508076,-177.5 -200.320508076,-172.5 -203.856041982,-176.035533906 -200.320508076,-172.5 -200.320508076,-167.5 -203.856041982,-171.035533906 -200.320508076,-167.5 -200.320508076,-162.5 -203.856041982,-166.035533906" stroke="#000" stroke-linecap="round" stroke-linejoin="round" stroke-width="1.5"/></svg>