<?xml version="1.0" ?><!DOCTYPE svg  PUBLIC '-//W3C//DTD SVG 1.1//EN'  'http://www.w3.org/Graphics/SVG/1.1/DTD/svg11.dtd'><svg height="266.000" viewBox="-28.000 -148.000 440.000 266.000" width="440.000" xmlns="http://www.w3.org/2000/svg"><line fill="none" stroke="none" stroke-linecap="round" stroke-width="2.0" x1="0.0" x2="0.0" y1="0.0" y2="0.0"/><polygon fill="none" fill-rule="evenodd" points="0.0,0.0 0.0,0.0 0.0,0.0" stroke-linejoin="round"/><text fill="#000" font-family="DejaVu Sans" font-size="15.0pt" stroke-width="0.0" x="-1.0" y="45">A</text><line fill="none" stroke="#000" stroke-linecap="round" stroke-width="1.5" x1="0.0" x2="350.0" y1="-0.0" y2="-0.0"/><text fill="#000" font-family="DejaVu Sans" font-size="15.0pt" stroke-width="0.0" x="349.0" y="45">B</text><polyline fill="none" points="0.0,-0.0 10.0,17.3205080757 -10.0,17.3205080757 -8.881784197e-15,-0.0 -10.0,17.3205080757 1.7763568394e-15,17.3205080757 -12.5,17.3205080757 -16.0355339059,20.8560419816 -12.5,17.3205080757 -7.5,17.3205080757 -11.0355339059,20.8560419816 -7.5,17.3205080757 -2.5,17.3205080757 -6.03553390593,20.8560419816 -2.5,17.3205080757 2.5,17.3205080757 -1.03553390593,20.8560419816 2.5,17.3205080757 7.5,17.3205080757 3.96446609407,20.8560419816 7.5,17.3205080757 12.5,17.3205080757 8.96446609407,20.8560419816" stroke="#000" stroke-linecap="round" stroke-linejoin="round" stroke-width="1.5"/><polyline fill="none" points="350.0,-0.0 360.0,17.3205080757 340.0,17.3205080757 350.0,3.5527136788e-15 340.0,17.3205080757 350.0,17.3205080757 337.5,17.3205080757 333.964466094,20.8560419816 337.5,17.3205080757 342.5,17.3205080757 338.964466094,20.8560419816 342.5,17.3205080757 347.5,17.3205080757 343.964466094,20.8560419816 347.5,17.3205080757 352.5,17.3205080757 348.964466094,20.8560419816 352.5,17.3205080757 357.5,17.3205080757 353.964466094,20.8560419816 357.5,17.3205080757 362.5,17.3205080757 358.964466094,20.8560419816" stroke="#000" stroke-linecap="round" stroke-linejoin="round" stroke-width="1.5"/><polyline fill="none" points="350.0,-10.0 -2.55351295664e-14,-10.0 31.8181818182,-19.0909090909 31.8181818182,-10.0" stroke="#000" stroke-linecap="round" stroke-linejoin="round" stroke-width="1.5"/><polygon fill="#000" fill-rule="evenodd" points="31.8181818182,-10.0 29.3181818182,-14.3301270189 34.3181818182,-14.3301270189 31.8181818182,-10.0" stroke-linejoin="round"/><polyline fill="none" points="31.8181818182,-10.0 29.3181818182,-14.3301270189 34.3181818182,-14.3301270189 31.8181818182,-10.0 31.8181818182,-19.0909090909 63.6363636364,-28.1818181818 63.6363636364,-10.0" stroke="#000" stroke-linecap="round" stroke-linejoin="round" stroke-width="1.5"/><polygon fill="#000" fill-rule="evenodd" points="63.6363636364,-10.0 61.1363636364,-14.3301270189 66.1363636364,-14.3301270189 63.6363636364,-10.0" stroke-linejoin="round"/><polyline fill="none" points="63.6363636364,-10.0 61.1363636364,-14.3301270189 66.1363636364,-14.3301270189 63.6363636364,-10.0 63.6363636364,-28.1818181818 95.4545454545,-37.2727272727 95.4545454545,-10.0" stroke="#000" stroke-linecap="round" stroke-linejoin="round" stroke-width="1.5"/><polygon fill="#000" fill-rule="evenodd" points="95.4545454545,-10.0 92.9545454545,-14.3301270189 97.9545454545,-14.3301270189 95.4545454545,-10.0" stroke-linejoin="round"/><polyline fill="none" points="95.4545454545,-10.0 92.9545454545,-14.3301270189 97.9545454545,-14.3301270189 95.4545454545,-10.0 95.4545454545,-37.2727272727 127.272727273,-46.3636363636 127.272727273,-10.0" stroke="#000" stroke-linecap="round" stroke-linejoin="round" stroke-width="1.5"/><polygon fill="#000" fill-rule="evenodd" points="127.272727273,-10.0 124.772727273,-14.3301270189 129.772727273,-14.3301270189 127.272727273,-10.0" stroke-linejoin="round"/><polyline fill="none" points="127.272727273,-10.0 124.772727273,-14.3301270189 129.772727273,-14.3301270189 127.272727273,-10.0 127.272727273,-46.3636363636 159.090909091,-55.4545454545 159.090909091,-10.0" stroke="#000" stroke-linecap="round" stroke-linejoin="round" stroke-width="1.5"/><polygon fill="#000" fill-rule="evenodd" points="159.090909091,-10.0 156.590909091,-14.3301270189 161.590909091,-14.3301270189 159.090909091,-10.0" stroke-linejoin="round"/><polyline fill="none" points="159.090909091,-10.0 156.590909091,-14.3301270189 161.590909091,-14.3301270189 159.090909091,-10.0 159.090909091,-55.4545454545 190.909090909,-64.5454545455 190.909090909,-10.0" stroke="#000" stroke-linecap="round" stroke-linejoin="round" stroke-width="1.5"/><polygon fill="#000" fill-rule="evenodd" points="190.909090909,-10.0 188.409090909,-14.3301270189 193.409090909,-14.3301270189 190.909090909,-10.0" stroke-linejoin="round"/><polyline fill="none" points="190.909090909,-10.0 188.409090909,-14.3301270189 193.409090909,-14.3301270189 190.909090909,-10.0 190.909090909,-64.5454545455 222.727272727,-73.6363636364 222.727272727,-10.0" stroke="#000" stroke-linecap="round" stroke-linejoin="round" stroke-width="1.5"/><polygon fill="#000" fill-rule="evenodd" points="222.727272727,-10.0 220.227272727,-14.3301270189 225.227272727,-14.3301270189 222.727272727,-10.0" stroke-linejoin="round"/><polyline fill="none" points="222.727272727,-10.0 220.227272727,-14.3301270189 225.227272727,-14.3301270189 222.727272727,-10.0 222.727272727,-73.6363636364 254.545454545,-82.7272727273 254.545454545,-10.0" stroke="#000" stroke-linecap="round" stroke-linejoin="round" stroke-width="1.5"/><polygon fill="#000" fill-rule="evenodd" points="254.545454545,-10.0 252.045454545,-14.3301270189 257.045454545,-14.3301270189 254.545454545,-10.0" stroke-linejoin="round"/><polyline fill="none" points="254.545454545,-10.0 252.045454545,-14.3301270189 257.045454545,-14.3301270189 254.545454545,-10.0 254.545454545,-82.7272727273 286.363636364,-91.8181818182 286.363636364,-10.0" stroke="#000" stroke-linecap="round" stroke-linejoin="round" stroke-width="1.5"/><polygon fill="#000" fill-rule="evenodd" points="286.363636364,-10.0 283.863636364,-14.3301270189 288.863636364,-14.3301270189 286.363636364,-10.0" stroke-linejoin="round"/><polyline fill="none" points="286.363636364,-10.0 283.863636364,-14.3301270189 288.863636364,-14.3301270189 286.363636364,-10.0 286.363636364,-91.8181818182 318.181818182,-100.909090909 318.181818182,-10.0" stroke="#000" stroke-linecap="round" stroke-linejoin="round" stroke-width="1.5"/><polygon fill="#000" fill-rule="evenodd" points="318.181818182,-10.0 315.681818182,-14.3301270189 320.681818182,-14.3301270189 318.181818182,-10.0" stroke-linejoin="round"/><polyline fill="none" points="318.181818182,-10.0 315.681818182,-14.3301270189 320.681818182,-14.3301270189 318.181818182,-10.0 318.181818182,-100.909090909 350.0,-110.0 350.0,-10.0" stroke="#000" stroke-linecap="round" stroke-linejoin="round" stroke-width="1.5"/><polygon fill="#000" fill-rule="evenodd" points="350.0,-10.0 347.5,-14.3301270189 352.5,-14.3301270189 350.0,-10.0" stroke-linejoin="round"/><polyline fill="none" points="350.0,-10.0 347.5,-14.3301270189 352.5,-14.3301270189 350.0,-10.0 350.0,-110.0" stroke="#000" stroke-linecap="round" stroke-linejoin="round" stroke-width="1.5"/><text fill="#000" font-family="Times New Roman" font-size="18.0pt" stroke-width="0.0" text-anchor="middle" x="349.0" y="-116">25.0 kN/m</text><polyline fill="none" points="0.0,100.0 -4.46292648539e-14,95.0 4.46292648539e-14,105.0 0.0,100.0 3.53553390593,96.4644660941 -3.53553390593,103.535533906 0.0,100.0 175.0,100.0 350.0,100.0 350.0,95.0 350.0,105.0 350.0,100.0 353.535533906,96.4644660941 346.464466094,103.535533906 350.0,100.0" stroke="#000" stroke-linecap="round" stroke-linejoin="round" stroke-width="1.5"/><text fill="#000" font-family="Times New Roman" font-size="18.0pt" stroke-width="0.0" text-anchor="middle" x="174.0" y="94">10.0 m</text></svg>