<?xml version="1.0" ?><!DOCTYPE svg  PUBLIC '-//W3C//DTD SVG 1.1//EN'  'http://www.w3.org/Graphics/SVG/1.1/DTD/svg11.dtd'><svg height="255.000" viewBox="-15.000 -138.000 389.000 255.000" width="389.000" xmlns="http://www.w3.org/2000/svg"><line fill="none" stroke="none" stroke-linecap="round" stroke-width="2.0" x1="0.0" x2="0.0" y1="0.0" y2="0.0"/><polygon fill="none" fill-rule="evenodd" points="0.0,0.0 0.0,0.0 0.0,0.0" stroke-linejoin="round"/><text fill="#000" font-family="DejaVu Sans" font-size="15.0pt" stroke-width="0.0" x="-1.0" y="45">A</text><line fill="none" stroke="#000" stroke-linecap="round" stroke-width="1.5" x1="0.0" x2="87.5" y1="-0.0" y2="-0.0"/><text fill="#000" font-family="DejaVu Sans" font-size="15.0pt" stroke-width="0.0" x="86.5" y="45">B</text><text fill="#000" font-family="DejaVu Sans" font-size="15.0pt" stroke-width="0.0" x="86.5" y="45">B</text><line fill="none" stroke="#000" stroke-linecap="round" stroke-width="1.5" x1="87.5" x2="350.0" y1="-0.0" y2="-0.0"/><text fill="#000" font-family="DejaVu Sans" font-size="15.0pt" stroke-width="0.0" x="349.0" y="45">C</text><polyline fill="none" points="350.0,-0.0 350.0,25.0 353.535533906,28.5355339059 350.0,25.0 350.0,15.0 353.535533906,18.5355339059 350.0,15.0 350.0,5.0 353.535533906,8.53553390593 350.0,5.0 350.0,-5.0 353.535533906,-1.46446609407 350.0,-5.0 350.0,-15.0 353.535533906,-11.4644660941 350.0,-15.0 350.0,-25.0 353.535533906,-21.4644660941" stroke="#000" stroke-linecap="round" stroke-linejoin="round" stroke-width="1.5"/><text fill="#000" font-family="Times New Roman" font-size="18.0pt" stroke-width="0.0" text-anchor="middle" x="86.5" y="-106">15.0 kN</text><line fill="none" stroke="#000" stroke-linecap="round" stroke-width="1.2" x1="87.5" x2="87.5" y1="-100.0" y2="-10.0"/><polygon fill="#000" fill-rule="evenodd" points="87.5,-10.0 82.5,-18.6602540378 92.5,-18.6602540378 87.5,-10.0" stroke-linejoin="round"/><polyline fill="none" points="87.5,-10.0 82.5,-18.6602540378 92.5,-18.6602540378 87.5,-10.0" stroke="#000" stroke-linecap="round" stroke-linejoin="round" stroke-width="1.2"/><polyline fill="none" points="0.0,100.0 -3.55101294277e-15,95.0 3.55101294277e-15,105.0 0.0,100.0 3.53553390593,96.4644660941 -3.53553390593,103.535533906 0.0,100.0 43.75,100.0 87.5,100.0 87.5,95.0 87.5,105.0 87.5,100.0 91.0355339059,96.4644660941 83.9644660941,103.535533906 87.5,100.0" stroke="#000" stroke-linecap="round" stroke-linejoin="round" stroke-width="1.2"/><text fill="#000" font-family="Times New Roman" font-size="18.0pt" stroke-width="0.0" text-anchor="middle" x="42.75" y="94">2.5 m</text><polyline fill="none" points="87.5,100.0 87.5,95.0 87.5,105.0 87.5,100.0 91.0355339059,96.4644660941 83.9644660941,103.535533906 87.5,100.0 218.75,100.0 350.0,100.0 350.0,95.0 350.0,105.0 350.0,100.0 353.535533906,96.4644660941 346.464466094,103.535533906 350.0,100.0" stroke="#000" stroke-linecap="round" stroke-linejoin="round" stroke-width="1.2"/><text fill="#000" font-family="Times New Roman" font-size="18.0pt" stroke-width="0.0" text-anchor="middle" x="217.75" y="94">7.5 m</text></svg>