<?xml version="1.0" ?><!DOCTYPE svg  PUBLIC '-//W3C//DTD SVG 1.1//EN'  'http://www.w3.org/Graphics/SVG/1.1/DTD/svg11.dtd'><svg height="216.000" viewBox="-28.000 -98.000 402.000 216.000" width="402.000" xmlns="http://www.w3.org/2000/svg"><line fill="none" stroke="none" stroke-linecap="round" stroke-width="2.0" x1="0.0" x2="0.0" y1="0.0" y2="0.0"/><polygon fill="none" fill-rule="evenodd" points="0.0,0.0 0.0,0.0 0.0,0.0" stroke-linejoin="round"/><text fill="#000" font-family="DejaVu Sans" font-size="15.0pt" stroke-width="0.0" x="-1.0" y="45">A</text><line fill="none" stroke="#000" stroke-linecap="round" stroke-width="1.5" x1="0.0" x2="233.333333333" y1="-0.0" y2="-0.0"/><text fill="#000" font-family="DejaVu Sans" font-size="15.0pt" stroke-width="0.0" x="232.333333333" y="45">B</text><text fill="#000" font-family="DejaVu Sans" font-size="15.0pt" stroke-width="0.0" x="232.333333333" y="45">B</text><line fill="none" stroke="#000" stroke-linecap="round" stroke-width="1.5" x1="233.333333333" x2="350.0" y1="-0.0" y2="-0.0"/><text fill="#000" font-family="DejaVu Sans" font-size="15.0pt" stroke-width="0.0" x="349.0" y="45">C</text><polyline fill="none" points="0.0,-0.0 10.0,17.3205080757 -10.0,17.3205080757 -8.881784197e-15,-0.0 -10.0,17.3205080757 1.7763568394e-15,17.3205080757 -12.5,17.3205080757 -16.0355339059,20.8560419816 -12.5,17.3205080757 -7.5,17.3205080757 -11.0355339059,20.8560419816 -7.5,17.3205080757 -2.5,17.3205080757 -6.03553390593,20.8560419816 -2.5,17.3205080757 2.5,17.3205080757 -1.03553390593,20.8560419816 2.5,17.3205080757 7.5,17.3205080757 3.96446609407,20.8560419816 7.5,17.3205080757 12.5,17.3205080757 8.96446609407,20.8560419816" stroke="#000" stroke-linecap="round" stroke-linejoin="round" stroke-width="1.5"/><polyline fill="none" points="233.333333333,-0.0 243.333333333,17.3205080757 223.333333333,17.3205080757 233.333333333,3.5527136788e-15 223.333333333,17.3205080757 233.333333333,17.3205080757 220.833333333,17.3205080757 217.297799427,20.8560419816 220.833333333,17.3205080757 225.833333333,17.3205080757 222.297799427,20.8560419816 225.833333333,17.3205080757 230.833333333,17.3205080757 227.297799427,20.8560419816 230.833333333,17.3205080757 235.833333333,17.3205080757 232.297799427,20.8560419816 235.833333333,17.3205080757 240.833333333,17.3205080757 237.297799427,20.8560419816 240.833333333,17.3205080757 245.833333333,17.3205080757 242.297799427,20.8560419816" stroke="#000" stroke-linecap="round" stroke-linejoin="round" stroke-width="1.5"/><polyline fill="none" points="350.0,-10.0 233.333333333,-10.0 233.333333333,-60.0 233.333333333,-10.0" stroke="#000" stroke-linecap="round" stroke-linejoin="round" stroke-width="1.5"/><polygon fill="#000" fill-rule="evenodd" points="233.333333333,-10.0 230.833333333,-14.3301270189 235.833333333,-14.3301270189 233.333333333,-10.0" stroke-linejoin="round"/><polyline fill="none" points="233.333333333,-10.0 230.833333333,-14.3301270189 235.833333333,-14.3301270189 233.333333333,-10.0 233.333333333,-60.0 243.939393939,-60.0 243.939393939,-10.0" stroke="#000" stroke-linecap="round" stroke-linejoin="round" stroke-width="1.5"/><polygon fill="#000" fill-rule="evenodd" points="243.939393939,-10.0 241.439393939,-14.3301270189 246.439393939,-14.3301270189 243.939393939,-10.0" stroke-linejoin="round"/><polyline fill="none" points="243.939393939,-10.0 241.439393939,-14.3301270189 246.439393939,-14.3301270189 243.939393939,-10.0 243.939393939,-60.0 254.545454545,-60.0 254.545454545,-10.0" stroke="#000" stroke-linecap="round" stroke-linejoin="round" stroke-width="1.5"/><polygon fill="#000" fill-rule="evenodd" points="254.545454545,-10.0 252.045454545,-14.3301270189 257.045454545,-14.3301270189 254.545454545,-10.0" stroke-linejoin="round"/><polyline fill="none" points="254.545454545,-10.0 252.045454545,-14.3301270189 257.045454545,-14.3301270189 254.545454545,-10.0 254.545454545,-60.0 265.151515152,-60.0 265.151515152,-10.0" stroke="#000" stroke-linecap="round" stroke-linejoin="round" stroke-width="1.5"/><polygon fill="#000" fill-rule="evenodd" points="265.151515152,-10.0 262.651515152,-14.3301270189 267.651515152,-14.3301270189 265.151515152,-10.0" stroke-linejoin="round"/><polyline fill="none" points="265.151515152,-10.0 262.651515152,-14.3301270189 267.651515152,-14.3301270189 265.151515152,-10.0 265.151515152,-60.0 275.757575758,-60.0 275.757575758,-10.0" stroke="#000" stroke-linecap="round" stroke-linejoin="round" stroke-width="1.5"/><polygon fill="#000" fill-rule="evenodd" points="275.757575758,-10.0 273.257575758,-14.3301270189 278.257575758,-14.3301270189 275.757575758,-10.0" stroke-linejoin="round"/><polyline fill="none" points="275.757575758,-10.0 273.257575758,-14.3301270189 278.257575758,-14.3301270189 275.757575758,-10.0 275.757575758,-60.0 286.363636364,-60.0 286.363636364,-10.0" stroke="#000" stroke-linecap="round" stroke-linejoin="round" stroke-width="1.5"/><polygon fill="#000" fill-rule="evenodd" points="286.363636364,-10.0 283.863636364,-14.3301270189 288.863636364,-14.3301270189 286.363636364,-10.0" stroke-linejoin="round"/><polyline fill="none" points="286.363636364,-10.0 283.863636364,-14.3301270189 288.863636364,-14.3301270189 286.363636364,-10.0 286.363636364,-60.0 296.96969697,-60.0 296.96969697,-10.0" stroke="#000" stroke-linecap="round" stroke-linejoin="round" stroke-width="1.5"/><polygon fill="#000" fill-rule="evenodd" points="296.96969697,-10.0 294.46969697,-14.3301270189 299.46969697,-14.3301270189 296.96969697,-10.0" stroke-linejoin="round"/><polyline fill="none" points="296.96969697,-10.0 294.46969697,-14.3301270189 299.46969697,-14.3301270189 296.96969697,-10.0 296.96969697,-60.0 307.575757576,-60.0 307.575757576,-10.0" stroke="#000" stroke-linecap="round" stroke-linejoin="round" stroke-width="1.5"/><polygon fill="#000" fill-rule="evenodd" points="307.575757576,-10.0 305.075757576,-14.3301270189 310.075757576,-14.3301270189 307.575757576,-10.0" stroke-linejoin="round"/><polyline fill="none" points="307.575757576,-10.0 305.075757576,-14.3301270189 310.075757576,-14.3301270189 307.575757576,-10.0 307.575757576,-60.0 318.181818182,-60.0 318.181818182,-10.0" stroke="#000" stroke-linecap="round" stroke-linejoin="round" stroke-width="1.5"/><polygon fill="#000" fill-rule="evenodd" points="318.181818182,-10.0 315.681818182,-14.3301270189 320.681818182,-14.3301270189 318.181818182,-10.0" stroke-linejoin="round"/><polyline fill="none" points="318.181818182,-10.0 315.681818182,-14.3301270189 320.681818182,-14.3301270189 318.181818182,-10.0 318.181818182,-60.0 328.787878788,-60.0 328.787878788,-10.0" stroke="#000" stroke-linecap="round" stroke-linejoin="round" stroke-width="1.5"/><polygon fill="#000" fill-rule="evenodd" points="328.787878788,-10.0 326.287878788,-14.3301270189 331.287878788,-14.3301270189 328.787878788,-10.0" stroke-linejoin="round"/><polyline fill="none" points="328.787878788,-10.0 326.287878788,-14.3301270189 331.287878788,-14.3301270189 328.787878788,-10.0 328.787878788,-60.0 339.393939394,-60.0 339.393939394,-10.0" stroke="#000" stroke-linecap="round" stroke-linejoin="round" stroke-width="1.5"/><polygon fill="#000" fill-rule="evenodd" points="339.393939394,-10.0 336.893939394,-14.3301270189 341.893939394,-14.3301270189 339.393939394,-10.0" stroke-linejoin="round"/><polyline fill="none" points="339.393939394,-10.0 336.893939394,-14.3301270189 341.893939394,-14.3301270189 339.393939394,-10.0 339.393939394,-60.0 350.0,-60.0 350.0,-10.0" stroke="#000" stroke-linecap="round" stroke-linejoin="round" stroke-width="1.5"/><polygon fill="#000" fill-rule="evenodd" points="350.0,-10.0 347.5,-14.3301270189 352.5,-14.3301270189 350.0,-10.0" stroke-linejoin="round"/><polyline fill="none" points="350.0,-10.0 347.5,-14.3301270189 352.5,-14.3301270189 350.0,-10.0 350.0,-60.0" stroke="#000" stroke-linecap="round" stroke-linejoin="round" stroke-width="1.5"/><text fill="#000" font-family="Times New Roman" font-size="18.0pt" stroke-width="0.0" text-anchor="middle" x="290.666666667" y="-66">25.0 kN/m</text><polyline fill="none" points="0.0,100.0 -4.82374896839e-14,95.0 4.82374896839e-14,105.0 0.0,100.0 3.53553390593,96.4644660941 -3.53553390593,103.535533906 0.0,100.0 116.666666667,100.0 233.333333333,100.0 233.333333333,95.0 233.333333333,105.0 233.333333333,100.0 236.868867239,96.4644660941 229.797799427,103.535533906 233.333333333,100.0" stroke="#000" stroke-linecap="round" stroke-linejoin="round" stroke-width="1.5"/><text fill="#000" font-family="Times New Roman" font-size="18.0pt" stroke-width="0.0" text-anchor="middle" x="115.666666667" y="94">10.0 m</text><polyline fill="none" points="233.333333333,100.0 233.333333333,95.0 233.333333333,105.0 233.333333333,100.0 236.868867239,96.4644660941 229.797799427,103.535533906 233.333333333,100.0 291.666666667,100.0 350.0,100.0 350.0,95.0 350.0,105.0 350.0,100.0 353.535533906,96.4644660941 346.464466094,103.535533906 350.0,100.0" stroke="#000" stroke-linecap="round" stroke-linejoin="round" stroke-width="1.5"/><text fill="#000" font-family="Times New Roman" font-size="18.0pt" stroke-width="0.0" text-anchor="middle" x="290.666666667" y="94">5.0 m</text></svg>