<?xml version="1.0" ?><!DOCTYPE svg  PUBLIC '-//W3C//DTD SVG 1.1//EN'  'http://www.w3.org/Graphics/SVG/1.1/DTD/svg11.dtd'><svg height="255.000" viewBox="-28.000 -138.000 404.000 255.000" width="404.000" xmlns="http://www.w3.org/2000/svg"><line fill="none" stroke="none" stroke-linecap="round" stroke-width="2.0" x1="0.0" x2="0.0" y1="0.0" y2="0.0"/><polygon fill="none" fill-rule="evenodd" points="0.0,0.0 0.0,0.0 0.0,0.0" stroke-linejoin="round"/><text fill="#000" font-family="DejaVu Sans" font-size="15.0pt" stroke-width="0.0" x="-1.0" y="45">A</text><line fill="none" stroke="#000" stroke-linecap="round" stroke-width="1.5" x1="0.0" x2="87.5" y1="-0.0" y2="-0.0"/><text fill="#000" font-family="DejaVu Sans" font-size="15.0pt" stroke-width="0.0" x="86.5" y="45">B</text><text fill="#000" font-family="DejaVu Sans" font-size="15.0pt" stroke-width="0.0" x="86.5" y="45">B</text><line fill="none" stroke="#000" stroke-linecap="round" stroke-width="1.5" x1="87.5" x2="175.0" y1="-0.0" y2="-0.0"/><text fill="#000" font-family="DejaVu Sans" font-size="15.0pt" stroke-width="0.0" x="174.0" y="45">C</text><text fill="#000" font-family="DejaVu Sans" font-size="15.0pt" stroke-width="0.0" x="174.0" y="45">C</text><line fill="none" stroke="#000" stroke-linecap="round" stroke-width="1.5" x1="175.0" x2="350.0" y1="-0.0" y2="-0.0"/><text fill="#000" font-family="DejaVu Sans" font-size="15.0pt" stroke-width="0.0" x="349.0" y="45">D</text><polyline fill="none" points="0.0,-0.0 10.0,17.3205080757 -10.0,17.3205080757 -8.881784197e-15,-0.0 -10.0,17.3205080757 1.7763568394e-15,17.3205080757 -12.5,17.3205080757 -16.0355339059,20.8560419816 -12.5,17.3205080757 -7.5,17.3205080757 -11.0355339059,20.8560419816 -7.5,17.3205080757 -2.5,17.3205080757 -6.03553390593,20.8560419816 -2.5,17.3205080757 2.5,17.3205080757 -1.03553390593,20.8560419816 2.5,17.3205080757 7.5,17.3205080757 3.96446609407,20.8560419816 7.5,17.3205080757 12.5,17.3205080757 8.96446609407,20.8560419816" stroke="#000" stroke-linecap="round" stroke-linejoin="round" stroke-width="1.5"/><polyline fill="none" points="175.0,-0.0 185.0,17.3205080757 165.0,17.3205080757 175.0,3.5527136788e-15 165.0,17.3205080757 175.0,17.3205080757 162.5,17.3205080757 158.964466094,20.8560419816 162.5,17.3205080757 167.5,17.3205080757 163.964466094,20.8560419816 167.5,17.3205080757 172.5,17.3205080757 168.964466094,20.8560419816 172.5,17.3205080757 177.5,17.3205080757 173.964466094,20.8560419816 177.5,17.3205080757 182.5,17.3205080757 178.964466094,20.8560419816 182.5,17.3205080757 187.5,17.3205080757 183.964466094,20.8560419816" stroke="#000" stroke-linecap="round" stroke-linejoin="round" stroke-width="1.5"/><polyline fill="none" points="350.0,-0.0 360.0,17.3205080757 340.0,17.3205080757 350.0,7.1054273576e-15 340.0,17.3205080757 350.0,17.3205080757 337.5,17.3205080757 333.964466094,20.8560419816 337.5,17.3205080757 342.5,17.3205080757 338.964466094,20.8560419816 342.5,17.3205080757 347.5,17.3205080757 343.964466094,20.8560419816 347.5,17.3205080757 352.5,17.3205080757 348.964466094,20.8560419816 352.5,17.3205080757 357.5,17.3205080757 353.964466094,20.8560419816 357.5,17.3205080757 362.5,17.3205080757 358.964466094,20.8560419816" stroke="#000" stroke-linecap="round" stroke-linejoin="round" stroke-width="1.5"/><text fill="#000" font-family="Times New Roman" font-size="18.0pt" stroke-width="0.0" text-anchor="middle" x="86.5" y="-106">15.0 kN</text><line fill="none" stroke="#000" stroke-linecap="round" stroke-width="1.2" x1="87.5" x2="87.5" y1="-100.0" y2="-10.0"/><polygon fill="#000" fill-rule="evenodd" points="87.5,-10.0 82.5,-18.6602540378 92.5,-18.6602540378 87.5,-10.0" stroke-linejoin="round"/><polyline fill="none" points="87.5,-10.0 82.5,-18.6602540378 92.5,-18.6602540378 87.5,-10.0" stroke="#000" stroke-linecap="round" stroke-linejoin="round" stroke-width="1.2"/><polyline fill="none" points="0.0,100.0 -2.13145813368e-14,95.0 2.13145813368e-14,105.0 0.0,100.0 3.53553390593,96.4644660941 -3.53553390593,103.535533906 0.0,100.0 43.75,100.0 87.5,100.0 87.5,95.0 87.5,105.0 87.5,100.0 91.0355339059,96.4644660941 83.9644660941,103.535533906 87.5,100.0" stroke="#000" stroke-linecap="round" stroke-linejoin="round" stroke-width="1.2"/><text fill="#000" font-family="Times New Roman" font-size="18.0pt" stroke-width="0.0" text-anchor="middle" x="42.75" y="94">5.0 m</text><polyline fill="none" points="87.5,100.0 87.5,95.0 87.5,105.0 87.5,100.0 91.0355339059,96.4644660941 83.9644660941,103.535533906 87.5,100.0 131.25,100.0 175.0,100.0 175.0,95.0 175.0,105.0 175.0,100.0 178.535533906,96.4644660941 171.464466094,103.535533906 175.0,100.0" stroke="#000" stroke-linecap="round" stroke-linejoin="round" stroke-width="1.2"/><text fill="#000" font-family="Times New Roman" font-size="18.0pt" stroke-width="0.0" text-anchor="middle" x="130.25" y="94">5.0 m</text><polyline fill="none" points="175.0,100.0 175.0,95.0 175.0,105.0 175.0,100.0 178.535533906,96.4644660941 171.464466094,103.535533906 175.0,100.0 262.5,100.0 350.0,100.0 350.0,95.0 350.0,105.0 350.0,100.0 353.535533906,96.4644660941 346.464466094,103.535533906 350.0,100.0" stroke="#000" stroke-linecap="round" stroke-linejoin="round" stroke-width="1.2"/><text fill="#000" font-family="Times New Roman" font-size="18.0pt" stroke-width="0.0" text-anchor="middle" x="261.5" y="94">10.0 m</text></svg>