<?xml version="1.0" ?><!DOCTYPE svg  PUBLIC '-//W3C//DTD SVG 1.1//EN'  'http://www.w3.org/Graphics/SVG/1.1/DTD/svg11.dtd'><svg height="396.000" viewBox="-267.000 -278.000 655.000 396.000" width="655.000" xmlns="http://www.w3.org/2000/svg"><line fill="none" stroke="none" stroke-linecap="round" stroke-width="2.0" x1="0.0" x2="0.0" y1="0.0" y2="0.0"/><polygon fill="none" fill-rule="evenodd" points="0.0,0.0 0.0,0.0 0.0,0.0" stroke-linejoin="round"/><text fill="#000" font-family="DejaVu Sans" font-size="15.0pt" stroke-width="0.0" x="9.0" y="25">A</text><line fill="none" stroke="#000" stroke-linecap="round" stroke-width="1.5" x1="0.0" x2="0.0" y1="-0.0" y2="-262.5"/><text fill="#000" font-family="DejaVu Sans" font-size="15.0pt" stroke-width="0.0" x="9.0" y="-237">B</text><text fill="#000" font-family="DejaVu Sans" font-size="15.0pt" stroke-width="0.0" x="9.0" y="-237">B</text><line fill="none" stroke="#000" stroke-linecap="round" stroke-width="1.5" x1="0.0" x2="350.0" y1="-262.5" y2="-262.5"/><text fill="#000" font-family="DejaVu Sans" font-size="15.0pt" stroke-width="0.0" x="359.0" y="-237">C</text><text fill="#000" font-family="DejaVu Sans" font-size="15.0pt" stroke-width="0.0" x="359.0" y="-237">C</text><line fill="none" stroke="#000" stroke-linecap="round" stroke-width="1.5" x1="350.0" x2="350.0" y1="-262.5" y2="-0.0"/><text fill="#000" font-family="DejaVu Sans" font-size="15.0pt" stroke-width="0.0" x="359.0" y="25">D</text><polyline fill="none" points="0.0,-0.0 -25.0,-0.0 -28.5355339059,3.53553390593 -25.0,4.4408920985e-16 -15.0,4.4408920985e-16 -18.5355339059,3.53553390593 -15.0,8.881784197e-16 -5.0,8.881784197e-16 -8.53553390593,3.53553390593 -5.0,1.33226762955e-15 5.0,1.33226762955e-15 1.46446609407,3.53553390593 5.0,1.7763568394e-15 15.0,1.7763568394e-15 11.4644660941,3.53553390593 15.0,2.22044604925e-15 25.0,2.22044604925e-15 21.4644660941,3.53553390593" stroke="#000" stroke-linecap="round" stroke-linejoin="round" stroke-width="1.5"/><polyline fill="none" points="350.0,-0.0 325.0,-0.0 321.464466094,3.53553390593 325.0,4.4408920985e-16 335.0,4.4408920985e-16 331.464466094,3.53553390593 335.0,8.881784197e-16 345.0,8.881784197e-16 341.464466094,3.53553390593 345.0,1.33226762955e-15 355.0,1.33226762955e-15 351.464466094,3.53553390593 355.0,1.7763568394e-15 365.0,1.7763568394e-15 361.464466094,3.53553390593 365.0,2.22044604925e-15 375.0,2.22044604925e-15 371.464466094,3.53553390593" stroke="#000" stroke-linecap="round" stroke-linejoin="round" stroke-width="1.5"/><polyline fill="none" points="-10.0,-262.5 -10.0,-0.0 -60.0,-0.0 -10.0,-0.0" stroke="#000" stroke-linecap="round" stroke-linejoin="round" stroke-width="1.5"/><polygon fill="#000" fill-rule="evenodd" points="-10.0,-0.0 -14.3301270189,2.5 -14.3301270189,-2.5 -10.0,-1.7763568394e-15" stroke-linejoin="round"/><polyline fill="none" points="-10.0,-0.0 -14.3301270189,2.5 -14.3301270189,-2.5 -10.0,-1.7763568394e-15 -60.0,2.59792187762e-14 -60.0,-23.8636363636 -10.0,-23.8636363636" stroke="#000" stroke-linecap="round" stroke-linejoin="round" stroke-width="1.5"/><polygon fill="#000" fill-rule="evenodd" points="-10.0,-23.8636363636 -14.3301270189,-21.3636363636 -14.3301270189,-26.3636363636 -10.0,-23.8636363636" stroke-linejoin="round"/><polyline fill="none" points="-10.0,-23.8636363636 -14.3301270189,-21.3636363636 -14.3301270189,-26.3636363636 -10.0,-23.8636363636 -60.0,-23.8636363636 -60.0,-47.7272727273 -10.0,-47.7272727273" stroke="#000" stroke-linecap="round" stroke-linejoin="round" stroke-width="1.5"/><polygon fill="#000" fill-rule="evenodd" points="-10.0,-47.7272727273 -14.3301270189,-45.2272727273 -14.3301270189,-50.2272727273 -10.0,-47.7272727273" stroke-linejoin="round"/><polyline fill="none" points="-10.0,-47.7272727273 -14.3301270189,-45.2272727273 -14.3301270189,-50.2272727273 -10.0,-47.7272727273 -60.0,-47.7272727273 -60.0,-71.5909090909 -10.0,-71.5909090909" stroke="#000" stroke-linecap="round" stroke-linejoin="round" stroke-width="1.5"/><polygon fill="#000" fill-rule="evenodd" points="-10.0,-71.5909090909 -14.3301270189,-69.0909090909 -14.3301270189,-74.0909090909 -10.0,-71.5909090909" stroke-linejoin="round"/><polyline fill="none" points="-10.0,-71.5909090909 -14.3301270189,-69.0909090909 -14.3301270189,-74.0909090909 -10.0,-71.5909090909 -60.0,-71.5909090909 -60.0,-95.4545454545 -10.0,-95.4545454545" stroke="#000" stroke-linecap="round" stroke-linejoin="round" stroke-width="1.5"/><polygon fill="#000" fill-rule="evenodd" points="-10.0,-95.4545454545 -14.3301270189,-92.9545454545 -14.3301270189,-97.9545454545 -10.0,-95.4545454545" stroke-linejoin="round"/><polyline fill="none" points="-10.0,-95.4545454545 -14.3301270189,-92.9545454545 -14.3301270189,-97.9545454545 -10.0,-95.4545454545 -60.0,-95.4545454545 -60.0,-119.318181818 -10.0,-119.318181818" stroke="#000" stroke-linecap="round" stroke-linejoin="round" stroke-width="1.5"/><polygon fill="#000" fill-rule="evenodd" points="-10.0,-119.318181818 -14.3301270189,-116.818181818 -14.3301270189,-121.818181818 -10.0,-119.318181818" stroke-linejoin="round"/><polyline fill="none" points="-10.0,-119.318181818 -14.3301270189,-116.818181818 -14.3301270189,-121.818181818 -10.0,-119.318181818 -60.0,-119.318181818 -60.0,-143.181818182 -10.0,-143.181818182" stroke="#000" stroke-linecap="round" stroke-linejoin="round" stroke-width="1.5"/><polygon fill="#000" fill-rule="evenodd" points="-10.0,-143.181818182 -14.3301270189,-140.681818182 -14.3301270189,-145.681818182 -10.0,-143.181818182" stroke-linejoin="round"/><polyline fill="none" points="-10.0,-143.181818182 -14.3301270189,-140.681818182 -14.3301270189,-145.681818182 -10.0,-143.181818182 -60.0,-143.181818182 -60.0,-167.045454545 -10.0,-167.045454545" stroke="#000" stroke-linecap="round" stroke-linejoin="round" stroke-width="1.5"/><polygon fill="#000" fill-rule="evenodd" points="-10.0,-167.045454545 -14.3301270189,-164.545454545 -14.3301270189,-169.545454545 -10.0,-167.045454545" stroke-linejoin="round"/><polyline fill="none" points="-10.0,-167.045454545 -14.3301270189,-164.545454545 -14.3301270189,-169.545454545 -10.0,-167.045454545 -60.0,-167.045454545 -60.0,-190.909090909 -10.0,-190.909090909" stroke="#000" stroke-linecap="round" stroke-linejoin="round" stroke-width="1.5"/><polygon fill="#000" fill-rule="evenodd" points="-10.0,-190.909090909 -14.3301270189,-188.409090909 -14.3301270189,-193.409090909 -10.0,-190.909090909" stroke-linejoin="round"/><polyline fill="none" points="-10.0,-190.909090909 -14.3301270189,-188.409090909 -14.3301270189,-193.409090909 -10.0,-190.909090909 -60.0,-190.909090909 -60.0,-214.772727273 -10.0,-214.772727273" stroke="#000" stroke-linecap="round" stroke-linejoin="round" stroke-width="1.5"/><polygon fill="#000" fill-rule="evenodd" points="-10.0,-214.772727273 -14.3301270189,-212.272727273 -14.3301270189,-217.272727273 -10.0,-214.772727273" stroke-linejoin="round"/><polyline fill="none" points="-10.0,-214.772727273 -14.3301270189,-212.272727273 -14.3301270189,-217.272727273 -10.0,-214.772727273 -60.0,-214.772727273 -60.0,-238.636363636 -10.0,-238.636363636" stroke="#000" stroke-linecap="round" stroke-linejoin="round" stroke-width="1.5"/><polygon fill="#000" fill-rule="evenodd" points="-10.0,-238.636363636 -14.3301270189,-236.136363636 -14.3301270189,-241.136363636 -10.0,-238.636363636" stroke-linejoin="round"/><polyline fill="none" points="-10.0,-238.636363636 -14.3301270189,-236.136363636 -14.3301270189,-241.136363636 -10.0,-238.636363636 -60.0,-238.636363636 -60.0,-262.5 -10.0,-262.5" stroke="#000" stroke-linecap="round" stroke-linejoin="round" stroke-width="1.5"/><polygon fill="#000" fill-rule="evenodd" points="-10.0,-262.5 -14.3301270189,-260.0 -14.3301270189,-265.0 -10.0,-262.5" stroke-linejoin="round"/><polyline fill="none" points="-10.0,-262.5 -14.3301270189,-260.0 -14.3301270189,-265.0 -10.0,-262.5 -60.0,-262.5" stroke="#000" stroke-linecap="round" stroke-linejoin="round" stroke-width="1.5"/><text fill="#000" font-family="Times New Roman" font-size="18.0pt" stroke-width="0.0" text-anchor="end" x="-61.0" y="-137">25.0 kN/m</text><polyline fill="none" points="0.0,100.0 -3.63311981128e-14,95.0 3.63311981128e-14,105.0 0.0,100.0 3.53553390593,96.4644660941 -3.53553390593,103.535533906 0.0,100.0 175.0,100.0 350.0,100.0 350.0,95.0 350.0,105.0 350.0,100.0 353.535533906,96.4644660941 346.464466094,103.535533906 350.0,100.0" stroke="#000" stroke-linecap="round" stroke-linejoin="round" stroke-width="1.5"/><text fill="#000" font-family="Times New Roman" font-size="18.0pt" stroke-width="0.0" text-anchor="middle" x="174.0" y="94">8.0 m</text><polyline fill="none" points="-200.0,-0.0 -205.0,3.71352594377e-14 -195.0,-3.71352594377e-14 -200.0,-0.0 -203.535533906,-3.53553390593 -196.464466094,3.53553390593 -200.0,-0.0 -200.0,-131.25 -200.0,-262.5 -205.0,-262.5 -195.0,-262.5 -200.0,-262.5 -203.535533906,-266.035533906 -196.464466094,-258.964466094 -200.0,-262.5" stroke="#000" stroke-linecap="round" stroke-linejoin="round" stroke-width="1.5"/><text fill="#000" font-family="Times New Roman" font-size="18.0pt" stroke-width="0.0" text-anchor="end" x="-201.0" y="-137">6.0 m</text></svg>