<?xml version="1.0" ?><!DOCTYPE svg  PUBLIC '-//W3C//DTD SVG 1.1//EN'  'http://www.w3.org/Graphics/SVG/1.1/DTD/svg11.dtd'><svg height="417.000" viewBox="-167.000 -300.000 555.000 417.000" width="555.000" xmlns="http://www.w3.org/2000/svg"><line fill="none" stroke="none" stroke-linecap="round" stroke-width="2.0" x1="0.0" x2="0.0" y1="0.0" y2="0.0"/><polygon fill="none" fill-rule="evenodd" points="0.0,0.0 0.0,0.0 0.0,0.0" stroke-linejoin="round"/><text fill="#000" font-family="DejaVu Sans" font-size="15.0pt" stroke-width="0.0" x="9.0" y="25">A</text><line fill="none" stroke="#000" stroke-linecap="round" stroke-width="1.5" x1="0.0" x2="0.0" y1="-0.0" y2="-262.5"/><text fill="#000" font-family="DejaVu Sans" font-size="15.0pt" stroke-width="0.0" x="9.0" y="-237">B</text><text fill="#000" font-family="DejaVu Sans" font-size="15.0pt" stroke-width="0.0" x="9.0" y="-237">B</text><line fill="none" stroke="#000" stroke-linecap="round" stroke-width="1.5" x1="0.0" x2="350.0" y1="-262.5" y2="-262.5"/><text fill="#000" font-family="DejaVu Sans" font-size="15.0pt" stroke-width="0.0" x="359.0" y="-237">C</text><text fill="#000" font-family="DejaVu Sans" font-size="15.0pt" stroke-width="0.0" x="359.0" y="-237">C</text><line fill="none" stroke="#000" stroke-linecap="round" stroke-width="1.5" x1="350.0" x2="350.0" y1="-262.5" y2="-0.0"/><text fill="#000" font-family="DejaVu Sans" font-size="15.0pt" stroke-width="0.0" x="359.0" y="25">D</text><polyline fill="none" points="0.0,-0.0 -25.0,-0.0 -28.5355339059,3.53553390593 -25.0,4.4408920985e-16 -15.0,4.4408920985e-16 -18.5355339059,3.53553390593 -15.0,8.881784197e-16 -5.0,8.881784197e-16 -8.53553390593,3.53553390593 -5.0,1.33226762955e-15 5.0,1.33226762955e-15 1.46446609407,3.53553390593 5.0,1.7763568394e-15 15.0,1.7763568394e-15 11.4644660941,3.53553390593 15.0,2.22044604925e-15 25.0,2.22044604925e-15 21.4644660941,3.53553390593" stroke="#000" stroke-linecap="round" stroke-linejoin="round" stroke-width="1.5"/><polyline fill="none" points="350.0,-0.0 325.0,-0.0 321.464466094,3.53553390593 325.0,4.4408920985e-16 335.0,4.4408920985e-16 331.464466094,3.53553390593 335.0,8.881784197e-16 345.0,8.881784197e-16 341.464466094,3.53553390593 345.0,1.33226762955e-15 355.0,1.33226762955e-15 351.464466094,3.53553390593 355.0,1.7763568394e-15 365.0,1.7763568394e-15 361.464466094,3.53553390593 365.0,2.22044604925e-15 375.0,2.22044604925e-15 371.464466094,3.53553390593" stroke="#000" stroke-linecap="round" stroke-linejoin="round" stroke-width="1.5"/><text fill="#000" font-family="Times New Roman" font-size="18.0pt" stroke-width="0.0" text-anchor="middle" x="-101.0" y="-268">15.0 kN</text><line fill="none" stroke="#000" stroke-linecap="round" stroke-width="1.2" x1="-100.0" x2="-10.0" y1="-262.5" y2="-262.5"/><polygon fill="#000" fill-rule="evenodd" points="-10.0,-262.5 -18.6602540378,-257.5 -18.6602540378,-267.5 -10.0,-262.5" stroke-linejoin="round"/><polyline fill="none" points="-10.0,-262.5 -18.6602540378,-257.5 -18.6602540378,-267.5 -10.0,-262.5" stroke="#000" stroke-linecap="round" stroke-linejoin="round" stroke-width="1.2"/><polyline fill="none" points="0.0,100.0 -2.46939586178e-15,95.0 2.46939586178e-15,105.0 0.0,100.0 3.53553390593,96.4644660941 -3.53553390593,103.535533906 0.0,100.0 175.0,100.0 350.0,100.0 350.0,95.0 350.0,105.0 350.0,100.0 353.535533906,96.4644660941 346.464466094,103.535533906 350.0,100.0" stroke="#000" stroke-linecap="round" stroke-linejoin="round" stroke-width="1.2"/><text fill="#000" font-family="Times New Roman" font-size="18.0pt" stroke-width="0.0" text-anchor="middle" x="174.0" y="94">8.0 m</text><polyline fill="none" points="-100.0,-0.0 -105.0,2.44078991815e-15 -95.0,-2.44078991815e-15 -100.0,-0.0 -103.535533906,-3.53553390593 -96.4644660941,3.53553390593 -100.0,-0.0 -100.0,-131.25 -100.0,-262.5 -105.0,-262.5 -95.0,-262.5 -100.0,-262.5 -103.535533906,-266.035533906 -96.4644660941,-258.964466094 -100.0,-262.5" stroke="#000" stroke-linecap="round" stroke-linejoin="round" stroke-width="1.2"/><text fill="#000" font-family="Times New Roman" font-size="18.0pt" stroke-width="0.0" text-anchor="end" x="-101.0" y="-137">6.0 m</text></svg>