<?xml version="1.0" ?><!DOCTYPE svg  PUBLIC '-//W3C//DTD SVG 1.1//EN'  'http://www.w3.org/Graphics/SVG/1.1/DTD/svg11.dtd'><svg height="479.000" viewBox="-167.000 -361.000 555.000 479.000" width="555.000" xmlns="http://www.w3.org/2000/svg"><line fill="none" stroke="none" stroke-linecap="round" stroke-width="2.0" x1="0.0" x2="0.0" y1="0.0" y2="0.0"/><polygon fill="none" fill-rule="evenodd" points="0.0,0.0 0.0,0.0 0.0,0.0" stroke-linejoin="round"/><text fill="#000" font-family="DejaVu Sans" font-size="15.0pt" stroke-width="0.0" x="9.0" y="25">A</text><line fill="none" stroke="#000" stroke-linecap="round" stroke-width="1.5" x1="0.0" x2="0.0" y1="-0.0" y2="-262.5"/><text fill="#000" font-family="DejaVu Sans" font-size="15.0pt" stroke-width="0.0" x="9.0" y="-237">B</text><text fill="#000" font-family="DejaVu Sans" font-size="15.0pt" stroke-width="0.0" x="9.0" y="-237">B</text><line fill="none" stroke="#000" stroke-linecap="round" stroke-width="1.5" x1="0.0" x2="350.0" y1="-262.5" y2="-262.5"/><text fill="#000" font-family="DejaVu Sans" font-size="15.0pt" stroke-width="0.0" x="359.0" y="-237">C</text><text fill="#000" font-family="DejaVu Sans" font-size="15.0pt" stroke-width="0.0" x="359.0" y="-237">C</text><line fill="none" stroke="#000" stroke-linecap="round" stroke-width="1.5" x1="350.0" x2="350.0" y1="-262.5" y2="-0.0"/><text fill="#000" font-family="DejaVu Sans" font-size="15.0pt" stroke-width="0.0" x="359.0" y="25">D</text><polyline fill="none" points="0.0,-0.0 -25.0,-0.0 -28.5355339059,3.53553390593 -25.0,4.4408920985e-16 -15.0,4.4408920985e-16 -18.5355339059,3.53553390593 -15.0,8.881784197e-16 -5.0,8.881784197e-16 -8.53553390593,3.53553390593 -5.0,1.33226762955e-15 5.0,1.33226762955e-15 1.46446609407,3.53553390593 5.0,1.7763568394e-15 15.0,1.7763568394e-15 11.4644660941,3.53553390593 15.0,2.22044604925e-15 25.0,2.22044604925e-15 21.4644660941,3.53553390593" stroke="#000" stroke-linecap="round" stroke-linejoin="round" stroke-width="1.5"/><polyline fill="none" points="350.0,-0.0 325.0,-0.0 321.464466094,3.53553390593 325.0,4.4408920985e-16 335.0,4.4408920985e-16 331.464466094,3.53553390593 335.0,8.881784197e-16 345.0,8.881784197e-16 341.464466094,3.53553390593 345.0,1.33226762955e-15 355.0,1.33226762955e-15 351.464466094,3.53553390593 355.0,1.7763568394e-15 365.0,1.7763568394e-15 361.464466094,3.53553390593 365.0,2.22044604925e-15 375.0,2.22044604925e-15 371.464466094,3.53553390593" stroke="#000" stroke-linecap="round" stroke-linejoin="round" stroke-width="1.5"/><polyline fill="none" points="350.0,-272.5 0.0,-272.5 0.0,-322.5 0.0,-272.5" stroke="#000" stroke-linecap="round" stroke-linejoin="round" stroke-width="1.5"/><polygon fill="#000" fill-rule="evenodd" points="0.0,-272.5 -2.5,-276.830127019 2.5,-276.830127019 1.7763568394e-15,-272.5" stroke-linejoin="round"/><polyline fill="none" points="0.0,-272.5 -2.5,-276.830127019 2.5,-276.830127019 1.7763568394e-15,-272.5 -2.59792187762e-14,-322.5 31.8181818182,-322.5 31.8181818182,-272.5" stroke="#000" stroke-linecap="round" stroke-linejoin="round" stroke-width="1.5"/><polygon fill="#000" fill-rule="evenodd" points="31.8181818182,-272.5 29.3181818182,-276.830127019 34.3181818182,-276.830127019 31.8181818182,-272.5" stroke-linejoin="round"/><polyline fill="none" points="31.8181818182,-272.5 29.3181818182,-276.830127019 34.3181818182,-276.830127019 31.8181818182,-272.5 31.8181818182,-322.5 63.6363636364,-322.5 63.6363636364,-272.5" stroke="#000" stroke-linecap="round" stroke-linejoin="round" stroke-width="1.5"/><polygon fill="#000" fill-rule="evenodd" points="63.6363636364,-272.5 61.1363636364,-276.830127019 66.1363636364,-276.830127019 63.6363636364,-272.5" stroke-linejoin="round"/><polyline fill="none" points="63.6363636364,-272.5 61.1363636364,-276.830127019 66.1363636364,-276.830127019 63.6363636364,-272.5 63.6363636364,-322.5 95.4545454545,-322.5 95.4545454545,-272.5" stroke="#000" stroke-linecap="round" stroke-linejoin="round" stroke-width="1.5"/><polygon fill="#000" fill-rule="evenodd" points="95.4545454545,-272.5 92.9545454545,-276.830127019 97.9545454545,-276.830127019 95.4545454545,-272.5" stroke-linejoin="round"/><polyline fill="none" points="95.4545454545,-272.5 92.9545454545,-276.830127019 97.9545454545,-276.830127019 95.4545454545,-272.5 95.4545454545,-322.5 127.272727273,-322.5 127.272727273,-272.5" stroke="#000" stroke-linecap="round" stroke-linejoin="round" stroke-width="1.5"/><polygon fill="#000" fill-rule="evenodd" points="127.272727273,-272.5 124.772727273,-276.830127019 129.772727273,-276.830127019 127.272727273,-272.5" stroke-linejoin="round"/><polyline fill="none" points="127.272727273,-272.5 124.772727273,-276.830127019 129.772727273,-276.830127019 127.272727273,-272.5 127.272727273,-322.5 159.090909091,-322.5 159.090909091,-272.5" stroke="#000" stroke-linecap="round" stroke-linejoin="round" stroke-width="1.5"/><polygon fill="#000" fill-rule="evenodd" points="159.090909091,-272.5 156.590909091,-276.830127019 161.590909091,-276.830127019 159.090909091,-272.5" stroke-linejoin="round"/><polyline fill="none" points="159.090909091,-272.5 156.590909091,-276.830127019 161.590909091,-276.830127019 159.090909091,-272.5 159.090909091,-322.5 190.909090909,-322.5 190.909090909,-272.5" stroke="#000" stroke-linecap="round" stroke-linejoin="round" stroke-width="1.5"/><polygon fill="#000" fill-rule="evenodd" points="190.909090909,-272.5 188.409090909,-276.830127019 193.409090909,-276.830127019 190.909090909,-272.5" stroke-linejoin="round"/><polyline fill="none" points="190.909090909,-272.5 188.409090909,-276.830127019 193.409090909,-276.830127019 190.909090909,-272.5 190.909090909,-322.5 222.727272727,-322.5 222.727272727,-272.5" stroke="#000" stroke-linecap="round" stroke-linejoin="round" stroke-width="1.5"/><polygon fill="#000" fill-rule="evenodd" points="222.727272727,-272.5 220.227272727,-276.830127019 225.227272727,-276.830127019 222.727272727,-272.5" stroke-linejoin="round"/><polyline fill="none" points="222.727272727,-272.5 220.227272727,-276.830127019 225.227272727,-276.830127019 222.727272727,-272.5 222.727272727,-322.5 254.545454545,-322.5 254.545454545,-272.5" stroke="#000" stroke-linecap="round" stroke-linejoin="round" stroke-width="1.5"/><polygon fill="#000" fill-rule="evenodd" points="254.545454545,-272.5 252.045454545,-276.830127019 257.045454545,-276.830127019 254.545454545,-272.5" stroke-linejoin="round"/><polyline fill="none" points="254.545454545,-272.5 252.045454545,-276.830127019 257.045454545,-276.830127019 254.545454545,-272.5 254.545454545,-322.5 286.363636364,-322.5 286.363636364,-272.5" stroke="#000" stroke-linecap="round" stroke-linejoin="round" stroke-width="1.5"/><polygon fill="#000" fill-rule="evenodd" points="286.363636364,-272.5 283.863636364,-276.830127019 288.863636364,-276.830127019 286.363636364,-272.5" stroke-linejoin="round"/><polyline fill="none" points="286.363636364,-272.5 283.863636364,-276.830127019 288.863636364,-276.830127019 286.363636364,-272.5 286.363636364,-322.5 318.181818182,-322.5 318.181818182,-272.5" stroke="#000" stroke-linecap="round" stroke-linejoin="round" stroke-width="1.5"/><polygon fill="#000" fill-rule="evenodd" points="318.181818182,-272.5 315.681818182,-276.830127019 320.681818182,-276.830127019 318.181818182,-272.5" stroke-linejoin="round"/><polyline fill="none" points="318.181818182,-272.5 315.681818182,-276.830127019 320.681818182,-276.830127019 318.181818182,-272.5 318.181818182,-322.5 350.0,-322.5 350.0,-272.5" stroke="#000" stroke-linecap="round" stroke-linejoin="round" stroke-width="1.5"/><polygon fill="#000" fill-rule="evenodd" points="350.0,-272.5 347.5,-276.830127019 352.5,-276.830127019 350.0,-272.5" stroke-linejoin="round"/><polyline fill="none" points="350.0,-272.5 347.5,-276.830127019 352.5,-276.830127019 350.0,-272.5 350.0,-322.5" stroke="#000" stroke-linecap="round" stroke-linejoin="round" stroke-width="1.5"/><text fill="#000" font-family="Times New Roman" font-size="18.0pt" stroke-width="0.0" text-anchor="middle" x="174.0" y="-329">25.0 kN/m</text><polyline fill="none" points="0.0,100.0 -3.60250364131e-14,95.0 3.60250364131e-14,105.0 0.0,100.0 3.53553390593,96.4644660941 -3.53553390593,103.535533906 0.0,100.0 175.0,100.0 350.0,100.0 350.0,95.0 350.0,105.0 350.0,100.0 353.535533906,96.4644660941 346.464466094,103.535533906 350.0,100.0" stroke="#000" stroke-linecap="round" stroke-linejoin="round" stroke-width="1.5"/><text fill="#000" font-family="Times New Roman" font-size="18.0pt" stroke-width="0.0" text-anchor="middle" x="174.0" y="94">8.0 m</text><polyline fill="none" points="-100.0,-0.0 -105.0,3.71352594377e-14 -95.0,-3.71352594377e-14 -100.0,-0.0 -103.535533906,-3.53553390593 -96.4644660941,3.53553390593 -100.0,-0.0 -100.0,-131.25 -100.0,-262.5 -105.0,-262.5 -95.0,-262.5 -100.0,-262.5 -103.535533906,-266.035533906 -96.4644660941,-258.964466094 -100.0,-262.5" stroke="#000" stroke-linecap="round" stroke-linejoin="round" stroke-width="1.5"/><text fill="#000" font-family="Times New Roman" font-size="18.0pt" stroke-width="0.0" text-anchor="end" x="-101.0" y="-137">6.0 m</text></svg>